<?xml version="1.0" encoding="UTF-8" standalone="no"?>
<svg viewBox="0 0 46 46" version="1.1" xmlns="http://www.w3.org/2000/svg">
    <g stroke="none" stroke-width="1" fill="none" fill-rule="evenodd">
        <path d="M31.64,23.205c0,-0.639 -0.057,-1.252 -0.164,-1.841l-13.476,0l0,3.481l7.704,0c-0.332,1.789 -1.342,3.306 -2.859,4.321l0,3.59l4.629,0c2.709,-2.492 4.166,-6.16 4.166,-9.551Z" fill="#4285F4"/>
        <path d="M18,32c3.86,0 7.098,-1.281 9.464,-3.474l-4.629,-3.59c-1.283,0.859 -2.924,1.367 -4.835,1.367c-3.724,0 -6.873,-2.516 -7.999,-5.897l-4.778,0l0,3.708c2.35,4.671 7.178,7.886 12.777,7.886Z" fill="#34A853"/>
        <path d="M10.001,20.406c-0.286,-0.858 -0.448,-1.774 -0.448,-2.721c0,-0.947 0.162,-1.863 0.448,-2.721l0,-3.708l-4.778,0c-0.97,1.935 -1.523,4.115 -1.523,6.429c0,2.314 0.553,4.494 1.523,6.429l4.778,-3.708Z" fill="#FBBC05"/>
        <path d="M18,9.367c2.099,0 3.982,0.721 5.465,2.135l4.109,-4.109c-2.475,-2.309 -5.713,-3.726 -9.574,-3.726c-5.599,0 -10.427,3.215 -12.777,7.886l4.778,3.708c1.126,-3.381 4.275,-5.894 7.999,-5.894Z" fill="#EA4335"/>
    </g>
</svg> 